<svg width="75" height="78" viewBox="0 0 75 78" fill="none" xmlns="http://www.w3.org/2000/svg">
<path d="M56.683 48.135V4.94204C56.683 2.25004 54.7143 0 51.9018 0C49.9329 0 48.6071 0.883903 46.4775 2.89291L30.004 18.4826C29.7629 18.7236 29.5219 18.8842 29.2406 18.9646L27.6334 19.0852L56.683 48.135ZM69.7011 76.5417C70.9467 77.7471 72.9156 77.7471 74.0806 76.5417C75.2861 75.2961 75.3266 73.3675 74.0806 72.1622L5.2936 3.37498C4.08826 2.16964 2.07925 2.16964 0.873917 3.37498C-0.291306 4.54037 -0.291306 6.5895 0.873917 7.75455L69.7011 76.5417ZM51.982 73.7291C54.3526 73.7291 56.0001 72.3228 56.5224 69.9522L9.07059 22.5808C7.78485 24.1076 7.06158 26.3175 7.06158 29.13V44.7197C7.06158 50.7466 10.1151 53.8404 15.7804 53.8404H27.7138C28.1155 53.8404 28.4772 53.9609 28.7182 54.2019L46.4775 71.1175C48.4061 72.9256 50.0133 73.7291 51.982 73.7291Z" fill="#EEB9BA"/>
</svg>
