<svg width="51" height="74" viewBox="0 0 51 74" fill="none" xmlns="http://www.w3.org/2000/svg">
<path d="M45.3875 74C48.148 74 50.1372 71.9836 50.1372 69.2817V4.9602C50.1372 2.25831 48.148 0 45.3063 0C43.3171 0 41.9773 0.887151 39.8256 2.90354L21.9223 19.7198C21.6381 19.9619 21.2728 20.0829 20.8668 20.0829H8.80951C3.08529 20.0829 0 23.1879 0 29.2371V44.8839C0 50.9331 3.08529 54.0383 8.80951 54.0383H20.8668C21.2728 54.0383 21.6381 54.159 21.9223 54.4011L39.8256 71.3788C41.7743 73.1935 43.3981 74 45.3875 74Z" fill="#CAF6BB"/>
</svg>
